# xmcd CD database file
# Copyright (C) 1993-2000  Ti Kan
#
# Track frame offsets:
#	150
#	12737
#	26403
#	39452
#	53921
#	66907
#	80656
#	94123
#	106173
#	119231
#
# Disc length: 1752 seconds
#
# Revision: 1
# Processed by: cddbd v1.4b41PL1 Copyright (c) Steve Scherf et al.
# Submitted via: xmcd 2.6 PL0
#
DISCID=8706d60a
DTITLE=John Lee Hooker - Trouble Blues
DYEAR=1900
DGENRE=
TTITLE0=Mambo Chillun
TTITLE1=Time Is Marching
TTITLE2=Unfriendly Woman
TTITLE3=I'm So Worried Baby
TTITLE4=Baby Lee
TTITLE5=The Road Is Rough
TTITLE6=Trouble Blues
TTITLE7=Everybody's Rockin'
TTITLE8=I'm So Excited
TTITLE9=Crawlin' Black Spider
EXTD=
EXTT0=
EXTT1=
EXTT2=
EXTT3=
EXTT4=
EXTT5=
EXTT6=
EXTT7=
EXTT8=
EXTT9=
PLAYORDER=
